<svg width="50" height="50" viewBox="0 0 50 50" fill="none" xmlns="http://www.w3.org/2000/svg">
<path fill-rule="evenodd" clip-rule="evenodd" d="M10.5424 31.6077C10.5424 34.5164 8.19695 36.8639 5.29076 36.8639C2.38458 36.8639 0.039093 34.5085 0.039093 31.6077C0.039093 28.707 2.38458 26.3516 5.29076 26.3516H10.5424V31.6077ZM13.1643 31.6077C13.1643 28.6991 15.5098 26.3516 18.416 26.3516C21.3222 26.3516 23.6677 28.6991 23.6677 31.6077V44.7442C23.6677 47.6529 21.3222 50.0004 18.416 50.0004C15.5098 50.0004 13.1643 47.6529 13.1643 44.7442V31.6077Z" fill="#E01E5A"/>
<path fill-rule="evenodd" clip-rule="evenodd" d="M18.4164 10.5123C15.5102 10.5123 13.1647 8.16485 13.1647 5.25617C13.1647 2.34749 15.5102 0 18.4164 0C21.3226 0 23.6681 2.34749 23.6681 5.25617V10.5123H18.4164ZM18.4164 13.176C21.3226 13.176 23.6681 15.5235 23.6681 18.4322C23.6681 21.3409 21.3226 23.6883 18.4164 23.6883H5.25167C2.34548 23.6883 0 21.3329 0 18.4322C0 15.5314 2.34548 13.176 5.25167 13.176H18.4164Z" fill="#36C5F0"/>
<path fill-rule="evenodd" clip-rule="evenodd" d="M39.4572 18.4322C39.4572 15.5235 41.8027 13.176 44.7088 13.176C47.615 13.176 49.9605 15.5235 49.9605 18.4322C49.9605 21.3409 47.615 23.6883 44.7088 23.6883H39.4572V18.4322ZM36.8353 18.4322C36.8353 21.3409 34.4898 23.6883 31.5836 23.6883C28.6774 23.6883 26.3319 21.3409 26.3319 18.4322V5.25617C26.3319 2.34749 28.6774 0 31.5836 0C34.4898 0 36.8353 2.34749 36.8353 5.25617V18.4322Z" fill="#2EB67D"/>
<path fill-rule="evenodd" clip-rule="evenodd" d="M31.5836 39.488C34.4898 39.488 36.8353 41.8355 36.8353 44.7442C36.8353 47.6529 34.4898 50.0004 31.5836 50.0004C28.6774 50.0004 26.3319 47.6529 26.3319 44.7442V39.488H31.5836ZM31.5836 36.8639C28.6774 36.8639 26.3319 34.5164 26.3319 31.6077C26.3319 28.6991 28.6774 26.3516 31.5836 26.3516H44.7483C47.6545 26.3516 50 28.6991 50 31.6077C50 34.5164 47.6545 36.8639 44.7483 36.8639H31.5836Z" fill="#ECB22E"/>
</svg>
